<svg xmlns="http://www.w3.org/2000/svg" viewBox="0 0 150.18 170.22"><title>1Asset 1</title><g id="Layer_2" data-name="Layer 2"><g id="logos-shopify-black"><path d="M131.56,32.82a1.69,1.69,0,0,0-1.51-1.41c-.6-.1-12.68-.2-12.68-.2s-10.17-9.87-11.18-10.87-2.92-.71-3.72-.51l-5.13,1.62a33.49,33.49,0,0,0-2.42-5.94C91.3,8.56,86.06,4.94,79.62,4.94a5.79,5.79,0,0,0-1.31.1,4.05,4.05,0,0,1-.6-.71A13.31,13.31,0,0,0,67.14,0C58.88.21,50.73,6.15,44,16.81c-4.73,7.45-8.26,16.81-9.26,24.06-9.46,2.92-16.11,4.93-16.21,5-4.73,1.5-4.93,1.61-5.54,6.14C12.48,55.37,0,152.1,0,152.1l104.78,18.12,45.4-11.28S131.66,33.62,131.56,32.82ZM92.1,23.06c-2.41.7-5.13,1.61-8.15,2.51a47.38,47.38,0,0,0-2.52-15C87.77,11.78,90.79,18.83,92.1,23.06ZM78.51,27.28C73,29,67,30.81,61,32.72c1.71-6.44,4.93-12.89,8.86-17.11a17.81,17.81,0,0,1,5.94-4.33C78.11,16,78.51,22.75,78.51,27.28ZM67.24,5.54a8.78,8.78,0,0,1,4.93,1.31,22.62,22.62,0,0,0-6.44,5c-5.23,5.64-9.26,14.3-10.87,22.75-5,1.51-9.87,3-14.4,4.43C43.48,25.77,54.56,5.94,67.24,5.54Z" style="fill:#95bf47"/><path d="M130.05,31.41c-.6-.1-12.68-.2-12.68-.2s-10.17-9.87-11.18-10.87a2,2,0,0,0-1.41-.61V170.22l45.4-11.28S131.66,33.73,131.56,32.82A1.79,1.79,0,0,0,130.05,31.41Z" style="fill:#5e8e3e"/><path d="M79.62,54.76,74.39,74.49A28.88,28.88,0,0,0,61.5,72.28c-10.27.6-10.37,7-10.27,8.75C51.84,89.89,75,91.81,76.3,112.44c1,16.31-8.66,27.38-22.55,28.28C37,141.73,27.88,132,27.88,132l3.53-15s9.26,6.94,16.6,6.54a6.49,6.49,0,0,0,6.35-7C53.65,105,34.73,105.6,33.52,86.77c-1-15.9,9.46-32,32.51-33.52C75.09,52.45,79.62,54.76,79.62,54.76Z" style="fill:#fff"/></g></g></svg>